<svg xmlns="http://www.w3.org/2000/svg" viewBox="0 0 200 200" width="200" height="200">
  <defs>
    <linearGradient id="grad1" x1="0%" y1="0%" x2="100%" y2="100%">
      <stop offset="0%" style="stop-color:#0ea5e9;stop-opacity:1" />
      <stop offset="100%" style="stop-color:#06b6d4;stop-opacity:1" />
    </linearGradient>
  </defs>
  
  <!-- Cabeza de perfil -->
  <g stroke="url(#grad1)" stroke-width="8" fill="none" stroke-linecap="round">
    <!-- Contorno de la cabeza: frente, coronilla, nuca, barbilla -->
    <path d="M 100 50 Q 100 30, 120 30 Q 140 30, 150 40 Q 160 50, 165 70 Q 170 100, 160 130 Q 150 155, 130 165 Q 110 170, 100 155 Q 90 170, 70 165 Q 50 155, 40 130 Q 30 100, 40 70 Q 50 50, 60 40 Q 70 30, 90 30 Q 100 30, 100 50" />
    
    <!-- Línea de la mandíbula -->
    <path d="M 100 155 L 130 140" />
    
    <!-- Nariz -->
    <path d="M 130 100 Q 135 105, 130 110" />
    
    <!-- Ojo -->
    <circle cx="110" cy="85" r="4" fill="url(#grad1)" />
    
    <!-- Garganta -->
    <path d="M 100 155 L 95 170" />
  </g>
  
  <!-- Flor de loto dentro de la cabeza -->
  <g stroke="url(#grad1)" stroke-width="6" fill="none" stroke-linecap="round">
    <!-- Pétalos centrales (superiores) -->
    <ellipse cx="105" cy="95" rx="8" ry="12" transform="rotate(-20 105 95)" />
    <ellipse cx="105" cy="95" rx="8" ry="12" transform="rotate(20 105 95)" />
    <ellipse cx="105" cy="95" rx="8" ry="12" />
    
    <!-- Pétalos externos (izquierda y derecha) -->
    <ellipse cx="90" cy="95" rx="7" ry="10" transform="rotate(-50 90 95)" />
    <ellipse cx="120" cy="95" rx="7" ry="10" transform="rotate(50 120 95)" />
    
    <!-- Centro del loto -->
    <circle cx="105" cy="95" r="3" fill="url(#grad1)" />
  </g>
</svg>
